<svg xmlns="http://www.w3.org/2000/svg" viewBox="0 0 600 1000" width="600" height="1000">
  <!-- Background -->
  <rect width="600" height="1000" fill="#141824"/>

  <!-- Outer walls -->
  <rect x="30" y="30" width="540" height="940" fill="none" stroke="#3a4a6a" stroke-width="3" rx="4"/>

  <!-- Upper section divider -->
  <line x1="30" y1="400" x2="570" y2="400" stroke="#2a3a5a" stroke-width="1.5" stroke-dasharray="6,5"/>

  <!-- Check-in wing (upper left) -->
  <rect x="40" y="60" width="250" height="310" fill="#1a2035" stroke="#2a3a5a" stroke-width="1.5"/>
  <!-- Check-in counters -->
  <rect x="55" y="260" width="220" height="14" fill="#1e2d45" stroke="#2a3a5a" stroke-width="1"/>
  <rect x="55" y="283" width="220" height="14" fill="#1e2d45" stroke="#2a3a5a" stroke-width="1"/>
  <rect x="55" y="306" width="220" height="14" fill="#1e2d45" stroke="#2a3a5a" stroke-width="1"/>
  <!-- Desk labels -->
  <text x="165" y="160" text-anchor="middle" fill="#2a3a5a" font-family="sans-serif" font-size="11" letter-spacing="2">CHECK-IN</text>

  <!-- Security wing (upper right) -->
  <rect x="310" y="60" width="250" height="310" fill="#1a2035" stroke="#2a3a5a" stroke-width="1.5"/>
  <!-- Security lanes -->
  <line x1="355" y1="80" x2="355" y2="355" stroke="#2a3a5a" stroke-width="1" stroke-dasharray="4,4"/>
  <line x1="400" y1="80" x2="400" y2="355" stroke="#2a3a5a" stroke-width="1" stroke-dasharray="4,4"/>
  <line x1="445" y1="80" x2="445" y2="355" stroke="#2a3a5a" stroke-width="1" stroke-dasharray="4,4"/>
  <line x1="490" y1="80" x2="490" y2="355" stroke="#2a3a5a" stroke-width="1" stroke-dasharray="4,4"/>
  <!-- X-ray tables -->
  <rect x="320" y="200" width="220" height="30" fill="#1e2d45" stroke="#2a3a5a" stroke-width="1"/>
  <text x="430" y="160" text-anchor="middle" fill="#2a3a5a" font-family="sans-serif" font-size="11" letter-spacing="2">SECURITY</text>

  <!-- Central passage -->
  <rect x="270" y="60" width="40" height="310" fill="#16202f" stroke="#2a3a5a" stroke-width="1"/>
  <rect x="270" y="415" width="40" height="555" fill="#16202f" stroke="#2a3a5a" stroke-width="1"/>

  <!-- Gates hall (lower) -->
  <rect x="40" y="420" width="520" height="540" fill="#1a2035" stroke="#2a3a5a" stroke-width="1.5"/>

  <!-- Gate pods -->
  <rect x="60" y="450" width="90" height="60" fill="#1e2d45" stroke="#2a3a5a" stroke-width="1" rx="2"/>
  <rect x="175" y="450" width="90" height="60" fill="#1e2d45" stroke="#2a3a5a" stroke-width="1" rx="2"/>
  <rect x="290" y="450" width="90" height="60" fill="#1e2d45" stroke="#2a3a5a" stroke-width="1" rx="2"/>
  <rect x="405" y="450" width="90" height="60" fill="#1e2d45" stroke="#2a3a5a" stroke-width="1" rx="2"/>

  <rect x="60" y="540" width="90" height="60" fill="#1e2d45" stroke="#2a3a5a" stroke-width="1" rx="2"/>
  <rect x="175" y="540" width="90" height="60" fill="#1e2d45" stroke="#2a3a5a" stroke-width="1" rx="2"/>
  <rect x="290" y="540" width="90" height="60" fill="#1e2d45" stroke="#2a3a5a" stroke-width="1" rx="2"/>
  <rect x="405" y="540" width="90" height="60" fill="#1e2d45" stroke="#2a3a5a" stroke-width="1" rx="2"/>

  <rect x="60" y="630" width="90" height="60" fill="#1e2d45" stroke="#2a3a5a" stroke-width="1" rx="2"/>
  <rect x="175" y="630" width="90" height="60" fill="#1e2d45" stroke="#2a3a5a" stroke-width="1" rx="2"/>
  <rect x="290" y="630" width="90" height="60" fill="#1e2d45" stroke="#2a3a5a" stroke-width="1" rx="2"/>
  <rect x="405" y="630" width="90" height="60" fill="#1e2d45" stroke="#2a3a5a" stroke-width="1" rx="2"/>

  <!-- Gate labels -->
  <text x="105" y="485" text-anchor="middle" fill="#2a3a5a" font-family="sans-serif" font-size="12">A1</text>
  <text x="220" y="485" text-anchor="middle" fill="#2a3a5a" font-family="sans-serif" font-size="12">A2</text>
  <text x="335" y="485" text-anchor="middle" fill="#2a3a5a" font-family="sans-serif" font-size="12">B1</text>
  <text x="450" y="485" text-anchor="middle" fill="#2a3a5a" font-family="sans-serif" font-size="12">B2</text>
  <text x="105" y="575" text-anchor="middle" fill="#2a3a5a" font-family="sans-serif" font-size="12">A3</text>
  <text x="220" y="575" text-anchor="middle" fill="#2a3a5a" font-family="sans-serif" font-size="12">A4</text>
  <text x="335" y="575" text-anchor="middle" fill="#2a3a5a" font-family="sans-serif" font-size="12">B3</text>
  <text x="450" y="575" text-anchor="middle" fill="#2a3a5a" font-family="sans-serif" font-size="12">B4</text>

  <!-- Gates section label -->
  <text x="300" y="730" text-anchor="middle" fill="#2a3a5a" font-family="sans-serif" font-size="11" letter-spacing="3">DEPARTURE GATES</text>

  <!-- Entry doorway -->
  <rect x="275" y="962" width="50" height="18" fill="#1e2d45" stroke="#3a5a8a" stroke-width="2"/>
  <text x="300" y="992" text-anchor="middle" fill="#1e2d45" font-family="sans-serif" font-size="10" letter-spacing="3">ENTRANCE</text>
</svg>
